<svg width="28" height="28" viewBox="0 0 28 28" fill="none" xmlns="http://www.w3.org/2000/svg">
<path fill-rule="evenodd" clip-rule="evenodd" d="M14 28C17.713 28 21.274 26.525 23.8995 23.8995C26.525 21.274 28 17.713 28 14C28 10.287 26.525 6.72602 23.8995 4.10051C21.274 1.475 17.713 0 14 0C10.287 0 6.72602 1.475 4.10051 4.10051C1.475 6.72602 0 10.287 0 14C0 17.713 1.475 21.274 4.10051 23.8995C6.72602 26.525 10.287 28 14 28ZM20.4873 12.7628L15.2373 7.51275C14.9072 7.19397 14.4651 7.01758 14.0063 7.02157C13.5475 7.02556 13.1085 7.2096 12.7841 7.53407C12.4596 7.85853 12.2756 8.29745 12.2716 8.7563C12.2676 9.21514 12.444 9.6572 12.7628 9.98725L15.0255 12.25H8.75C8.28587 12.25 7.84075 12.4344 7.51256 12.7626C7.18438 13.0908 7 13.5359 7 14C7 14.4641 7.18438 14.9092 7.51256 15.2374C7.84075 15.5656 8.28587 15.75 8.75 15.75H15.0255L12.7628 18.0128C12.5956 18.1742 12.4623 18.3673 12.3706 18.5808C12.2789 18.7943 12.2306 19.0239 12.2286 19.2563C12.2265 19.4887 12.2708 19.7191 12.3588 19.9342C12.4468 20.1492 12.5767 20.3446 12.7411 20.5089C12.9054 20.6733 13.1008 20.8032 13.3158 20.8912C13.5309 20.9792 13.7613 21.0235 13.9937 21.0214C14.2261 21.0194 14.4557 20.9711 14.6692 20.8794C14.8827 20.7877 15.0758 20.6544 15.2373 20.4873L20.4873 15.2373C20.8153 14.9091 20.9996 14.464 20.9996 14C20.9996 13.536 20.8153 13.0909 20.4873 12.7628Z" fill="black"/>
</svg>
